<?xml version="1.0" encoding="UTF-8" standalone="no"?>
<!-- Created with Inkscape (http://www.inkscape.org/) -->

<svg
   width="512"
   height="512"
   viewBox="0 0 135.46667 135.46667"
   version="1.1"
   id="svg1"
   xml:space="preserve"
   inkscape:version="1.4 (e7c3feb100, 2024-10-09)"
   sodipodi:docname="background.svg"
   xmlns:inkscape="http://www.inkscape.org/namespaces/inkscape"
   xmlns:sodipodi="http://sodipodi.sourceforge.net/DTD/sodipodi-0.dtd"
   xmlns:xlink="http://www.w3.org/1999/xlink"
   xmlns="http://www.w3.org/2000/svg"
   xmlns:svg="http://www.w3.org/2000/svg"><sodipodi:namedview
     id="namedview1"
     pagecolor="#ffffff"
     bordercolor="#000000"
     borderopacity="0.25"
     inkscape:showpageshadow="2"
     inkscape:pageopacity="0.0"
     inkscape:pagecheckerboard="0"
     inkscape:deskcolor="#d1d1d1"
     inkscape:document-units="px"
     inkscape:zoom="1.4142136"
     inkscape:cx="126.92567"
     inkscape:cy="278.95363"
     inkscape:window-width="1514"
     inkscape:window-height="1018"
     inkscape:window-x="1935"
     inkscape:window-y="47"
     inkscape:window-maximized="1"
     inkscape:current-layer="layer1" /><defs
     id="defs1"><linearGradient
       id="linearGradient61"
       inkscape:collect="always"><stop
         style="stop-color:#ffc200;stop-opacity:1;"
         offset="0"
         id="stop59" /><stop
         style="stop-color:#ff6600;stop-opacity:1"
         offset="0.5"
         id="stop60" /><stop
         style="stop-color:#f012ea;stop-opacity:1;"
         offset="1"
         id="stop61" /></linearGradient><linearGradient
       id="linearGradient18"
       inkscape:collect="always"><stop
         style="stop-color:#ffa500;stop-opacity:1;"
         offset="0"
         id="stop18" /><stop
         style="stop-color:#ff6600;stop-opacity:1"
         offset="0.5"
         id="stop20" /><stop
         style="stop-color:#f0129a;stop-opacity:1;"
         offset="1"
         id="stop19" /></linearGradient><linearGradient
       id="linearGradient1"
       inkscape:collect="always"><stop
         style="stop-color:#000000;stop-opacity:1"
         offset="0"
         id="stop1" /><stop
         style="stop-color:#00005d;stop-opacity:1;"
         offset="1"
         id="stop2" /></linearGradient><linearGradient
       inkscape:collect="always"
       xlink:href="#linearGradient1"
       id="linearGradient2"
       x1="60.854168"
       y1="0.79375005"
       x2="60.854168"
       y2="66.939583"
       gradientUnits="userSpaceOnUse" /><linearGradient
       inkscape:collect="always"
       xlink:href="#linearGradient61"
       id="linearGradient19"
       x1="62.970837"
       y1="70.141182"
       x2="62.970837"
       y2="126.73542"
       gradientUnits="userSpaceOnUse"
       gradientTransform="translate(6.4822903,-56.091668)" /><linearGradient
       inkscape:collect="always"
       xlink:href="#linearGradient18"
       id="linearGradient45"
       gradientUnits="userSpaceOnUse"
       gradientTransform="translate(6.4822911,-55.998123)"
       x1="62.970837"
       y1="72.760422"
       x2="62.970837"
       y2="126.73542" /><filter
       style="color-interpolation-filters:sRGB;"
       inkscape:label="Drop Shadow"
       id="filter59"
       x="-0.041801225"
       y="-0.10993153"
       width="1.0836024"
       height="1.1875303"><feFlood
         result="flood"
         in="SourceGraphic"
         flood-opacity="0.560784"
         flood-color="rgb(255,183,4)"
         id="feFlood58" /><feGaussianBlur
         result="blur"
         in="SourceGraphic"
         stdDeviation="1.000000"
         id="feGaussianBlur58" /><feOffset
         result="offset"
         in="blur"
         dx="0.000000"
         dy="-1.000000"
         id="feOffset58" /><feComposite
         result="comp1"
         operator="in"
         in="flood"
         in2="offset"
         id="feComposite58" /><feComposite
         result="comp2"
         operator="out"
         in="comp1"
         in2="SourceGraphic"
         id="feComposite59" /></filter></defs><g
     inkscape:label="Layer 1"
     inkscape:groupmode="layer"
     id="layer1"><rect
       style="fill:url(#linearGradient2);stroke-width:0.264583;fill-opacity:1"
       id="rect1"
       width="135.46667"
       height="67.733337"
       x="0"
       y="0" /><path
       id="path45"
       style="fill:url(#linearGradient45);fill-opacity:1;stroke-width:0.264583;filter:url(#filter59)"
       d="m 67.733336,13.587295 c -15.8546,0 -28.707293,12.852693 -28.707293,28.707293 0.02414,0.742123 0.07706,1.48303 0.158646,2.221049 h 57.097293 c 0.08159,-0.738019 0.134508,-1.478926 0.158647,-2.221049 0,-15.8546 -12.852693,-28.707293 -28.707293,-28.707293 z"
       sodipodi:nodetypes="sccccs" /><path
       id="path2"
       style="fill:url(#linearGradient19);fill-opacity:1;stroke-width:0.264583"
       d="m 67.733335,13.49375 a 28.707293,28.707293 0 0 0 -28.707292,28.707293 28.707293,28.707293 0 0 0 0.158646,2.221049 H 96.281981 A 28.707293,28.707293 0 0 0 96.440628,42.201043 28.707293,28.707293 0 0 0 67.733335,13.49375 Z M 39.299928,46.035432 a 28.707293,28.707293 0 0 0 0.893485,4.26537 h 55.079844 a 28.707293,28.707293 0 0 0 0.893485,-4.26537 z m 1.396297,5.61413 a 28.707293,28.707293 0 0 0 1.900659,4.26589 h 50.272902 a 28.707293,28.707293 0 0 0 1.900659,-4.26589 z m 2.492871,5.35006 a 28.707293,28.707293 0 0 0 3.114022,4.26589 h 42.860433 a 28.707293,28.707293 0 0 0 3.114023,-4.26589 z m 3.917591,5.06946 a 28.707293,28.707293 0 0 0 5.084961,4.26589 h 31.083375 a 28.707293,28.707293 0 0 0 5.084961,-4.26589 z m 5.794995,4.65811 a 28.707293,28.707293 0 0 0 14.831653,4.18114 28.707293,28.707293 0 0 0 14.831653,-4.18114 z" /><path
       style="fill:#000000;fill-opacity:0.174499;stroke-width:0.384525"
       d="m 79.854418,34.364268 c -0.212961,-0.02214 -0.406834,-0.09456 -0.43083,-0.160941 -0.024,-0.06638 0.01606,-0.349606 0.08902,-0.629388 l 0.132655,-0.508695 0.90861,0.03097 c 0.674689,0.023 1.09158,-0.02104 1.619319,-0.171028 0.39089,-0.111098 0.71898,-0.193707 0.729089,-0.183576 0.01011,0.01013 0.113586,0.259985 0.229948,0.55523 l 0.211568,0.536811 -0.279354,0.110741 c -0.471859,0.187055 -1.284294,0.388086 -1.340646,0.331733 -0.02935,-0.02935 -0.08555,-0.290914 -0.124892,-0.581252 l -0.07153,-0.527887 0.02593,0.574596 0.02593,0.574597 -0.363594,0.06015 c -0.372044,0.06155 -0.679232,0.05883 -1.361229,-0.01206 z m -1.157017,-0.26394 c -0.177842,-0.06569 -0.35012,-0.146733 -0.382839,-0.180099 -0.03272,-0.03337 0.05464,-0.318725 0.194125,-0.63413 0.245991,-0.55623 0.262084,-0.570369 0.535447,-0.470446 0.155009,0.05666 0.334731,0.121453 0.399382,0.143983 0.154308,0.05378 -0.143438,1.278983 -0.308112,1.267866 -0.06306,-0.0043 -0.260161,-0.06149 -0.438003,-0.127174 z m -0.999257,-0.396069 c -0.223825,-0.1137 -0.42476,-0.222602 -0.446521,-0.242003 -0.04925,-0.04391 0.621604,-1.160197 0.69693,-1.159674 0.03014,2.09e-4 0.201851,0.09004 0.381569,0.199616 l 0.326761,0.199236 -0.259866,0.588861 c -0.142926,0.323873 -0.267077,0.596023 -0.275891,0.604776 -0.0088,0.0088 -0.199156,-0.07711 -0.422982,-0.190812 z m 5.676904,-0.05992 c -0.03324,-0.09468 -0.122346,-0.326524 -0.19802,-0.515216 -0.07567,-0.188692 -0.137587,-0.378897 -0.137587,-0.422679 0,-0.113343 1.111372,-0.726262 1.208285,-0.666366 0.04426,0.02736 0.210065,0.236737 0.368457,0.465296 l 0.287984,0.415561 -0.242197,0.173894 c -0.133208,0.09564 -0.463663,0.297138 -0.734344,0.447771 -0.440519,0.245147 -0.498486,0.25582 -0.552578,0.101739 z m -6.948641,-0.772691 c -0.30776,-0.245482 -0.661625,-0.58535 -0.786366,-0.755262 l -0.226802,-0.308931 0.519676,-0.413772 0.519677,-0.413773 0.678839,0.635711 0.67884,0.635711 -0.320038,0.503426 c -0.176021,0.276884 -0.361489,0.51688 -0.41215,0.533323 -0.05066,0.01644 -0.343915,-0.170951 -0.651676,-0.416433 z m 3.48456,0.07093 c -0.125902,-0.02425 -0.228913,-0.06202 -0.228913,-0.08394 0,-0.02192 0.09289,-0.438243 0.206427,-0.925163 0.113535,-0.48692 0.190213,-0.933952 0.170395,-0.993407 -0.01982,-0.05945 -0.119049,0.287488 -0.220514,0.770983 -0.239269,1.140159 -0.247826,1.152583 -0.692711,1.005758 l -0.357102,-0.117854 0.472102,-1.149609 c 0.381902,-0.929964 0.506135,-1.140708 0.650231,-1.103027 0.09797,0.02562 0.183439,0.144253 0.18993,0.263629 0.0098,0.179563 0.02001,0.185395 0.05934,0.03378 0.03878,-0.149533 0.134939,-0.177627 0.522328,-0.152608 l 0.474794,0.03066 0.118467,0.96652 c 0.201687,1.645478 0.240409,1.528363 -0.499989,1.51223 -0.349727,-0.0076 -0.738879,-0.0337 -0.864781,-0.05795 z m 1.568912,-0.513199 c -0.03283,-0.265793 -0.08918,-0.803738 -0.125223,-1.195433 l -0.06553,-0.712173 0.320734,-0.120276 c 0.292072,-0.109528 0.328337,-0.100436 0.405809,0.101739 0.04679,0.122108 0.249395,0.628771 0.450231,1.125917 0.200836,0.497146 0.344148,0.937894 0.318471,0.979441 -0.0499,0.08073 -0.857438,0.304045 -1.09948,0.304045 -0.09716,0 -0.165101,-0.160156 -0.20501,-0.48326 z m 3.148026,-0.0689 -0.363026,-0.443026 0.435014,-0.443492 c 0.239258,-0.24392 0.52477,-0.570714 0.634472,-0.726209 l 0.199457,-0.282717 0.482372,0.305911 c 0.265304,0.168252 0.482372,0.34145 0.482372,0.384885 0,0.133145 -1.011413,1.322535 -1.267094,1.490064 -0.232167,0.152121 -0.253181,0.142184 -0.603567,-0.285416 z M 77.891961,32.11674 c -0.557525,-0.360945 -1.268217,-1.048798 -1.257393,-1.216984 0.0026,-0.04002 0.354005,-0.34746 0.780953,-0.683199 1.207068,-0.9492 1.073055,-0.900308 1.437395,-0.524404 l 0.320427,0.330596 -0.615391,0.999112 c -0.338464,0.549511 -0.597742,1.01676 -0.576172,1.03833 0.02157,0.02157 0.322994,-0.416709 0.669831,-0.973952 0.443992,-0.713338 0.67472,-0.996244 0.779659,-0.955975 0.08197,0.03146 0.149045,0.104862 0.149045,0.163125 0,0.243325 -0.86435,2.212295 -0.971167,2.212295 -0.06403,0 -0.386762,-0.175024 -0.717187,-0.388944 z m 5.003556,0.301258 c -0.0298,-0.04823 -0.235275,-0.552343 -0.456598,-1.120256 l -0.402404,-1.032569 0.292932,-0.151482 c 0.161113,-0.08331 0.313494,-0.151481 0.338625,-0.151481 0.02513,0 0.352485,0.412043 0.727455,0.915651 0.374969,0.503608 0.705656,0.91565 0.73486,0.91565 0.0292,0 0.009,-0.05723 -0.04499,-0.127173 -0.05395,-0.06995 -0.378423,-0.504088 -0.721055,-0.964761 l -0.622967,-0.837587 0.343624,-0.375087 0.343625,-0.375086 0.941715,0.60224 c 0.517943,0.331232 0.959278,0.655226 0.980743,0.719987 0.06185,0.1866 -1.182326,1.449145 -1.747554,1.773355 -0.558175,0.320163 -0.6266,0.340323 -0.708011,0.208599 z m -7.71348,-0.904274 c -0.08623,-0.09792 -0.278127,-0.420181 -0.426442,-0.716127 l -0.269664,-0.538084 0.566183,-0.250393 c 0.311401,-0.137716 0.601013,-0.250393 0.643583,-0.250393 0.04257,0 0.221144,0.250263 0.39683,0.55614 l 0.319431,0.556139 -0.490155,0.410381 c -0.269585,0.225709 -0.511042,0.410381 -0.536571,0.410381 -0.02553,0 -0.116967,-0.08012 -0.203195,-0.178044 z m 10.879065,-0.836824 -0.4773,-0.302695 0.171008,-0.358609 c 0.19832,-0.415882 0.261668,-0.427192 0.888289,-0.158591 l 0.466619,0.200016 -0.22411,0.461287 c -0.123261,0.253708 -0.251807,0.461287 -0.285658,0.461287 -0.03385,0 -0.276333,-0.136213 -0.538848,-0.302695 z m -9.884156,-0.418542 c -0.155944,-0.286521 -0.242682,-0.555732 -0.194212,-0.602781 0.108061,-0.104896 1.943048,-0.91424 2.072811,-0.91424 0.05166,0 0.157931,0.122158 0.23616,0.271463 0.141217,0.269522 0.135485,0.276792 -0.80224,1.01739 -0.519461,0.410259 -0.963879,0.745927 -0.987597,0.745927 -0.02372,0 -0.169932,-0.232992 -0.324922,-0.517759 z m 4.152516,-0.270718 c 0.131089,-0.794105 0.272652,-1.144564 0.462332,-1.144564 0.146628,0 0.1977,0.109696 0.248681,0.53413 0.11883,0.989313 0.117887,0.991955 -0.354034,0.991955 h -0.419959 z m 0.877793,0.152608 c -5e-4,-0.125902 -0.0286,-0.459542 -0.06248,-0.741421 -0.05801,-0.482645 -0.04582,-0.519697 0.20915,-0.635869 0.14891,-0.06785 0.289999,-0.123359 0.313532,-0.123359 0.02353,0 0.23295,0.25187 0.465373,0.559711 0.489948,0.648932 0.459681,0.75513 -0.287813,1.009826 -0.606484,0.20665 -0.63671,0.203385 -0.637761,-0.06889 z m -1.423462,0.07832 c 0,-0.166581 0.561943,-1.375491 0.639376,-1.375491 0.05201,0 0.07261,0.05723 0.04578,0.127174 -0.02683,0.06994 -0.107688,0.390423 -0.179683,0.712173 -0.101344,0.452911 -0.173188,0.584999 -0.318189,0.584999 -0.103008,0 -0.187288,-0.02198 -0.187288,-0.04885 z m 4.653686,-0.572024 c -0.886405,-0.557566 -0.976095,-0.641369 -0.87953,-0.821803 0.05914,-0.110508 0.161248,-0.178134 0.226901,-0.150281 0.06566,0.02786 0.416958,0.173348 0.780675,0.323321 0.363717,0.149973 0.810408,0.33455 0.992647,0.410172 l 0.331343,0.137492 -0.172144,0.360989 c -0.09468,0.198544 -0.199298,0.360989 -0.232487,0.360989 -0.03319,0 -0.504521,-0.279396 -1.047405,-0.620879 z M 74.25388,29.579194 c -0.09211,-0.328271 -0.167469,-0.713532 -0.167469,-0.856135 0,-0.231326 0.05089,-0.266254 0.472025,-0.323977 0.808454,-0.110811 0.815939,-0.107496 0.944843,0.418562 0.06513,0.265793 0.140253,0.556854 0.16694,0.646802 0.04592,0.154781 -0.04002,0.205029 -1.136557,0.664538 -0.0654,0.02741 -0.182268,-0.202255 -0.279782,-0.54979 z m 5.236402,0.494716 c -0.114201,-0.07279 -0.07928,-0.197518 0.18428,-0.658172 0.302989,-0.529569 0.48592,-0.744454 0.561135,-0.659151 0.01728,0.01959 -0.111673,0.344212 -0.286552,0.721378 -0.242227,0.52242 -0.351521,0.664365 -0.458863,0.595945 z m 5.940115,-0.813784 c -1.164829,-0.490141 -1.637922,-0.737832 -1.663562,-0.87097 -0.02689,-0.139653 -0.05621,-0.153065 -0.117569,-0.05379 -0.06484,0.104917 -0.204675,0.08366 -0.676434,-0.102836 -0.639364,-0.252751 -0.88214,-0.406921 -0.640478,-0.406722 0.146085,1.21e-4 3.3478,0.671697 3.67464,0.770774 0.138631,0.04203 0.152931,0.11003 0.07804,0.371148 -0.128924,0.449531 -0.03932,0.475265 0.107361,0.03083 0.08799,-0.266623 0.167198,-0.353351 0.289922,-0.317458 0.09287,0.02716 0.340537,0.07981 0.550374,0.117 0.284985,0.05051 0.381521,0.117064 0.381521,0.26304 0,0.188619 -0.263052,0.909963 -0.32546,0.892481 -0.01685,-0.0047 -0.763106,-0.316794 -1.658359,-0.693502 z m -6.589783,0.319488 -0.269076,-0.280855 0.593251,-0.474717 c 0.439934,-0.352034 0.622871,-0.445096 0.707866,-0.360101 0.06304,0.06304 0.114616,0.150353 0.114616,0.194032 0,0.130095 -0.71167,1.202495 -0.798004,1.202495 -0.04377,0 -0.200662,-0.126384 -0.348653,-0.280854 z m 3.479534,-0.295848 c -0.512444,-0.701833 -0.530097,-0.741558 -0.399482,-0.89894 0.09882,-0.119065 0.216759,-0.08075 0.72021,0.23395 0.331123,0.206983 0.602042,0.425126 0.602042,0.484761 0,0.05964 -0.129105,0.23212 -0.286901,0.383298 l -0.286902,0.274869 z m -6.654177,-0.260172 c -0.08537,-0.287465 -0.155214,-0.576677 -0.155214,-0.642692 0,-0.143969 2.226818,-0.509655 2.34009,-0.384288 0.04146,0.04588 0.103945,0.204926 0.138864,0.353431 0.0537,0.228349 0.0204,0.285997 -0.215777,0.373633 -0.153597,0.05699 -0.655801,0.265389 -1.116008,0.463102 l -0.83674,0.359478 z m 2.569483,-0.358559 c -0.15332,-0.34576 -0.216823,-0.706091 -0.223192,-1.266431 -0.01156,-1.017442 0.06675,-1.098186 0.774109,-0.798124 0.722326,0.306411 0.86107,0.456771 0.336119,0.364259 -0.880733,-0.155211 -0.988892,-0.146451 -0.356086,0.02884 0.568386,0.157448 0.657034,0.213276 0.630924,0.397343 -0.01671,0.117786 0.03699,0.375403 0.119338,0.572481 l 0.149718,0.358324 -0.535692,0.413283 c -0.294631,0.227306 -0.568375,0.413284 -0.60832,0.413284 -0.03995,0 -0.169058,-0.217467 -0.286918,-0.483259 z m 0.785297,-0.941085 0.305217,-0.07767 h -0.305217 c -0.167869,0 -0.442564,0.03495 -0.610434,0.07767 L 78.1051,27.80161 h 0.305217 c 0.16787,0 0.442565,-0.03495 0.610434,-0.07766 z m 3.712114,0.849728 c -0.678147,-0.450887 -0.654542,-0.431219 -0.592288,-0.493473 0.04117,-0.04117 1.286866,0.412421 1.384518,0.504135 0.04854,0.04559 -0.09755,0.360478 -0.167246,0.360478 -0.03673,0 -0.31797,-0.167014 -0.624984,-0.37114 z m 4.141116,0.08781 c -0.441848,-0.111028 -0.576717,-0.186024 -0.534129,-0.297007 0.03133,-0.08166 0.05697,-0.504674 0.05697,-0.94003 v -0.791557 l 0.59987,-0.09661 0.599869,-0.09661 0.05814,0.464093 c 0.05129,0.40939 -0.06447,1.810484 -0.155327,1.880006 -0.01886,0.01443 -0.30029,-0.0406 -0.625398,-0.122293 z m -6.69409,-0.07244 c -0.40862,-0.222097 -0.599576,-0.59416 -0.599576,-1.168228 0,-0.439773 0.04853,-0.566724 0.336963,-0.881458 0.281253,-0.3069 0.420019,-0.37487 0.839346,-0.411125 0.621448,-0.05373 1.106967,0.214246 1.322418,0.729893 0.189875,0.454433 0.184768,0.703528 -0.02341,1.142239 -0.313252,0.660131 -1.220452,0.944845 -1.875737,0.588679 z m 0.933197,-0.766937 c 0.266035,-0.142378 0.250918,-0.557404 -0.02741,-0.752348 -0.190731,-0.133593 -0.255269,-0.13651 -0.43239,-0.01955 -0.27694,0.182883 -0.327902,0.575259 -0.09667,0.744337 0.219378,0.160413 0.3007,0.16444 0.55647,0.02755 z m 4.418957,0.562508 c -0.279782,-0.07411 -0.776481,-0.188599 -1.103775,-0.254408 -0.547676,-0.110123 -0.591396,-0.138929 -0.548827,-0.361617 0.02544,-0.133079 0.0071,-0.217755 -0.04079,-0.188168 -0.04787,0.02959 -0.08704,0.135002 -0.08704,0.234255 0,0.170164 -0.04063,0.171736 -0.712172,0.02755 -0.634198,-0.136168 -0.712174,-0.178863 -0.712174,-0.389942 0,-0.196469 0.05659,-0.239642 0.330652,-0.252277 l 0.330652,-0.01524 -0.305217,-0.04196 c -0.307085,-0.04221 -0.559564,-0.266873 -0.559564,-0.497911 0,-0.123779 0.974851,-0.95573 1.11989,-0.95573 0.118981,0 0.528191,1.021331 0.469984,1.173016 -0.02867,0.07471 -0.203541,0.156346 -0.388608,0.181423 l -0.336485,0.04559 0.356086,-0.01328 c 0.20337,-0.0076 0.414191,0.05217 0.491566,0.13933 0.119151,0.134216 0.129048,0.131974 0.08212,-0.0186 -0.04285,-0.137492 0.05068,-0.191818 0.474954,-0.275861 l 0.528315,-0.104652 -0.525528,0.04931 c -0.519134,0.04871 -0.526367,0.04548 -0.59468,-0.265543 -0.03803,-0.17317 -0.05335,-0.325628 -0.03404,-0.338795 0.202067,-0.13776 2.156115,-0.977462 2.191734,-0.941843 0.0261,0.0261 0.112254,0.268801 0.191449,0.53933 0.134054,0.457928 0.127583,0.152929 -0.0082,-0.388221 -0.05368,-0.213856 0.0056,-0.275142 0.501571,-0.518377 l 0.562442,-0.275847 0.145934,0.531942 c 0.335856,1.224217 0.354415,1.174806 -0.464297,1.236089 -0.298103,0.02231 -0.610679,0.06534 -0.694614,0.09561 -0.08393,0.03027 -0.267065,0.07708 -0.406956,0.104013 -0.139891,0.02693 -0.08266,0.03837 0.127174,0.02542 l 0.381521,-0.02355 v 0.785162 c 0,0.771242 -0.05935,1.116087 -0.188928,1.097776 -0.03598,-0.0051 -0.294332,-0.06988 -0.574114,-0.144 z m -0.125237,-1.643052 c -0.06888,-0.02787 -0.206228,-0.02957 -0.305217,-0.0038 -0.09899,0.02579 -0.04263,0.0486 0.125237,0.05067 0.16787,0.0021 0.248861,-0.01903 0.17998,-0.0469 z m -11.402677,0.48616 c 0.0256,-0.62138 0.07179,-1.155022 0.10264,-1.185872 0.03085,-0.03085 0.351306,0.01807 0.712124,0.108699 l 0.656032,0.164789 -0.0861,0.628 c -0.04735,0.3454 -0.0595,0.749544 -0.027,0.898097 0.0732,0.33453 0.04528,0.350879 -0.754833,0.442061 l -0.649414,0.07401 z m 1.471205,0.572529 c -0.09279,-0.528407 0.06286,-1.453045 0.241081,-1.432112 0.08273,0.0097 0.596805,0.116487 1.14238,0.237265 l 0.991955,0.219595 v 0.486229 0.486229 l -1.093694,0.167307 c -0.601532,0.09202 -1.122935,0.167044 -1.158675,0.166723 -0.03574,-3.22e-4 -0.09111,-0.149378 -0.123047,-0.331236 z m 3.392806,-1.263547 c -0.67245,-0.306346 -0.649848,-0.28648 -0.543049,-0.477321 0.07237,-0.129321 0.174845,-0.0978 0.645195,0.198456 0.512502,0.322808 0.75253,0.5628 0.542201,0.54212 -0.04663,-0.0046 -0.336587,-0.123049 -0.644347,-0.263255 z m -2.163565,-0.07769 c -0.546462,-0.126756 -1.01594,-0.252838 -1.043284,-0.280182 -0.03901,-0.03901 0.124444,-0.660198 0.202021,-0.767774 0.05192,-0.072 2.138369,0.889811 2.129873,0.98183 -0.03511,0.380291 0.04751,0.376051 -1.28861,0.06613 z m 2.332027,-0.282131 -0.594579,-0.407392 0.340232,-0.354039 c 0.380942,-0.3964 1.014678,-0.789084 1.427638,-0.88461 0.258545,-0.05981 0.276413,-0.03961 0.326875,0.369486 0.129097,1.046574 0.12811,1.079282 -0.03401,1.126391 -0.08767,0.02548 -0.230829,0.07597 -0.318134,0.112206 -0.113919,0.04728 -0.268753,-0.09385 -0.548382,-0.499857 -0.214304,-0.31116 -0.410194,-0.545195 -0.435312,-0.520078 -0.02512,0.02512 0.13926,0.295994 0.365281,0.601947 0.382119,0.517256 0.398813,0.567051 0.237963,0.709809 -0.156559,0.13895 -0.229445,0.114844 -0.767565,-0.253863 z m 2.783133,0.17499 c -0.09804,-0.118134 -0.04884,-0.267258 0.251031,-0.760904 0.205133,-0.337687 0.417624,-0.613977 0.472201,-0.613977 0.05458,0 0.215894,0.125883 0.358483,0.279739 l 0.259253,0.279738 -0.442154,0.387015 c -0.618108,0.541027 -0.752265,0.604969 -0.898814,0.428389 z m -7.003451,-0.308647 c -0.298024,-0.07267 -0.565836,-0.156108 -0.595139,-0.185411 -0.06258,-0.06258 0.157045,-0.788653 0.278441,-0.920536 0.08453,-0.09183 1.215148,0.311447 1.214078,0.433051 -0.0017,0.190221 -0.222836,0.8259 -0.283997,0.81628 -0.03934,-0.0062 -0.315359,-0.07071 -0.613383,-0.143384 z m 2.169685,-0.2959 c -0.559565,-0.238632 -1.005944,-0.463796 -0.991955,-0.500366 0.01399,-0.03657 0.02689,-0.123718 0.02867,-0.193663 0.0018,-0.06995 0.06781,-0.212426 0.146731,-0.316624 0.13634,-0.180004 0.189621,-0.16021 1.068587,0.397002 1.022724,0.648345 1.046997,0.671203 0.95828,0.902396 -0.07889,0.205584 -0.01597,0.220595 -1.210313,-0.288745 z m 6.518172,0.129565 c -0.09862,-0.166954 -0.163405,-0.314363 -0.143965,-0.327576 0.01944,-0.01321 0.287152,-0.231164 0.594912,-0.484337 0.307761,-0.253172 0.728546,-0.585933 0.935079,-0.739468 l 0.375515,-0.279155 0.266518,0.422192 c 0.429237,0.679955 0.428886,0.681698 -0.193909,0.963252 -0.31311,0.141552 -0.813539,0.367904 -1.112064,0.503005 l -0.542773,0.245639 z m -2.42293,0.137865 c -0.301705,-0.03653 -0.325875,-0.09343 -0.429995,-1.012329 l -0.06052,-0.534129 h 0.468185 c 0.398304,0 0.460256,0.02657 0.415061,0.178043 -0.168824,0.565796 -0.284322,1.159958 -0.235059,1.209221 0.03127,0.03127 0.112574,-0.22631 0.180665,-0.57241 0.118461,-0.60213 0.268771,-0.805625 0.492798,-0.667168 0.06487,0.04009 0.0088,0.278127 -0.150165,0.637599 -0.139525,0.315492 -0.238381,0.619526 -0.219679,0.675632 0.0187,0.05611 0.139834,-0.180974 0.269181,-0.526844 0.131885,-0.352659 0.296754,-0.628856 0.37538,-0.628856 0.07711,0 0.140204,0.04798 0.140204,0.106626 0,0.203558 -0.68872,1.18203 -0.827236,1.175262 -0.07661,-0.0037 -0.265075,-0.02203 -0.418818,-0.04065 z m -4.379756,-1.355364 -1.590494,-1.029772 0.458994,-0.596497 c 0.515979,-0.670553 1.131285,-1.186967 1.248276,-1.047652 0.223109,0.265679 0.625563,0.85017 0.625563,0.908515 0,0.0369 -0.251804,0.345343 -0.559564,0.685429 -0.30776,0.340087 -0.559564,0.666036 -0.559564,0.724332 0,0.108337 0.598797,-0.546185 0.606299,-0.662723 0.0023,-0.03533 0.15549,-0.179673 0.34048,-0.320772 l 0.336345,-0.256543 0.61411,0.829467 c 0.33776,0.456207 0.646604,0.886165 0.686321,0.955463 0.06591,0.115005 -0.414948,0.840514 -0.557089,0.840521 -0.03255,2e-6 -0.774905,-0.463394 -1.649677,-1.029768 z m 6.376204,0.606324 C 82.972705,25.148363 82.71983,24.946206 82.515718,24.816485 l -0.371113,-0.235858 0.461745,-1.124422 c 0.25396,-0.618433 0.5189,-1.124423 0.588755,-1.124423 0.06986,0 0.228202,0.08194 0.351881,0.18209 l 0.224872,0.18209 -0.620557,0.985003 c -0.341306,0.541752 -0.619838,1.020647 -0.618961,1.064213 8.84e-4,0.04357 0.302359,-0.389588 0.669958,-0.962563 0.757161,-1.18018 0.697177,-1.165439 1.503135,-0.369407 l 0.495994,0.489885 -0.36431,0.314921 c -0.20037,0.173207 -0.635281,0.527808 -0.966468,0.788004 L 83.26849,25.4791 Z M 75.154669,24.971582 C 74.930844,24.86575 74.70433,24.76343 74.651306,24.744204 c -0.10604,-0.03845 0.06661,-0.512257 0.300062,-0.823462 0.138327,-0.184398 0.162589,-0.179308 0.656727,0.13778 0.282202,0.181088 0.513095,0.372535 0.513095,0.425437 0,0.197703 -0.315064,0.696209 -0.435004,0.688279 -0.06851,-0.0045 -0.307691,-0.09483 -0.531517,-0.200656 z m 10.536343,-0.456811 c -0.178707,-0.316653 -0.310474,-0.58548 -0.292815,-0.597394 0.01766,-0.01191 0.243798,-0.191198 0.50253,-0.398409 l 0.470422,-0.376745 0.150742,0.230648 c 0.22429,0.343182 0.587108,1.073672 0.587108,1.182069 0,0.08071 -0.18065,0.171127 -0.978923,0.489972 -0.06278,0.02508 -0.260356,-0.213489 -0.439064,-0.530141 z m -7.27842,-0.52973 c -0.361626,-0.489619 -0.658869,-0.940168 -0.66054,-1.001221 -0.0033,-0.119075 0.997429,-0.702874 1.073831,-0.626471 0.06229,0.06229 0.856171,2.105512 0.856171,2.203534 0,0.06889 -0.441276,0.314374 -0.565114,0.314374 -0.02577,0 -0.342721,-0.400598 -0.704348,-0.890216 z m 0.964575,-0.556958 c -0.235345,-0.61401 -0.388925,-1.150896 -0.341289,-1.193081 0.04764,-0.04219 0.308398,-0.136391 0.57947,-0.209347 0.609307,-0.163988 0.628118,-0.140384 0.718301,0.90136 0.03705,0.428034 0.09219,0.918295 0.122523,1.089469 0.05037,0.284249 0.02454,0.320619 -0.297977,0.419603 l -0.353127,0.108378 z m 2.408501,1.06462 c -0.102033,-0.02321 -0.167194,-0.09542 -0.144802,-0.160474 0.02239,-0.06505 0.151655,-0.613676 0.287252,-1.219165 l 0.246541,-1.100889 0.302038,0.05997 c 0.16612,0.03298 0.344497,0.102433 0.396393,0.154328 0.08534,0.08534 -0.661078,2.094381 -0.835824,2.249691 -0.03634,0.0323 -0.149566,0.03975 -0.251598,0.01653 z m -1.191784,-0.253315 c -0.0021,-0.06994 -0.06446,-0.60789 -0.138583,-1.195433 -0.07412,-0.587542 -0.112004,-1.10822 -0.08419,-1.157062 0.05525,-0.09701 1.512887,-0.03229 1.616976,0.0718 0.05961,0.05961 -0.164634,1.25015 -0.387493,2.057279 -0.09185,0.332652 -0.119989,0.350594 -0.549847,0.350594 -0.29257,0 -0.454396,-0.04505 -0.456864,-0.127174 z m 4.006056,-1.037274 -0.626889,-0.619492 0.321672,-0.529189 c 0.176919,-0.291053 0.355871,-0.530623 0.397669,-0.532375 0.094,-0.0039 1.602696,1.421369 1.602696,1.514115 0,0.06989 -0.990938,0.836362 -1.040182,0.804563 -0.01544,-0.01 -0.310178,-0.296902 -0.654966,-0.637622 z m -7.397151,-0.878911 c -0.2124,-0.2845 -0.370304,-0.53315 -0.350899,-0.552555 0.123747,-0.123747 1.262967,-0.761472 1.360279,-0.761472 0.101553,0 0.609104,1.115376 0.530987,1.166877 -0.175962,0.116009 -1.105825,0.664424 -1.126562,0.664424 -0.01519,0 -0.201406,-0.232773 -0.413805,-0.517274 z m 6.294477,0.04195 c -0.16787,-0.08908 -0.318566,-0.173082 -0.334882,-0.186677 -0.05777,-0.04814 0.437864,-1.16902 0.516978,-1.16916 0.0442,-7.7e-5 0.264616,0.09386 0.489822,0.208752 l 0.409465,0.208893 -0.21553,0.325237 c -0.118541,0.178879 -0.266191,0.428247 -0.32811,0.554148 -0.132103,0.268612 -0.140608,0.269542 -0.537743,0.05881 z m -4.832834,-0.796988 c -0.138609,-0.34151 -0.194722,-0.608209 -0.139571,-0.66336 0.113239,-0.11324 1.434425,-0.467376 1.496545,-0.401141 0.0246,0.02623 0.0759,0.322381 0.114003,0.658119 l 0.06928,0.610434 -0.49023,0.118288 c -0.269627,0.06506 -0.564029,0.14765 -0.654227,0.183538 -0.126468,0.05032 -0.217041,-0.06544 -0.3958,-0.505878 z m 3.917183,0.436439 c -0.167869,-0.0592 -0.317612,-0.117578 -0.332762,-0.12973 -0.04717,-0.03784 0.197983,-1.115827 0.271968,-1.195911 0.12013,-0.130031 0.980241,0.179469 0.942708,0.339222 -0.06716,0.285848 -0.450689,1.109924 -0.512922,1.102086 -0.03508,-0.0044 -0.201123,-0.05647 -0.368992,-0.115667 z m -1.589156,-0.25666 -0.673505,-0.03529 -0.0641,-0.467679 c -0.129265,-0.943094 -0.203773,-0.882585 1.010477,-0.820613 0.591018,0.03016 1.092078,0.07234 1.113466,0.09373 0.02139,0.02139 -0.03287,0.323761 -0.12058,0.67194 -0.136306,0.541111 -0.190894,0.630159 -0.375858,0.613126 -0.119016,-0.01096 -0.519469,-0.03581 -0.889897,-0.05522 z"
       id="path59"
       sodipodi:nodetypes="ssscsssscssscccsssssssssssssscsssssssscssssscccccssssssssscssssscsssssscssssssscsscsssssssscssssssssscsssssscccsssssscssscsssscsscsssssssssssssscscssssscssssssssssscsssssssssssssssssssssssssssssscsssssssssscssssssscsssssssscssssscsscsssssssssscccsssssssssssssssscssssssscssssscsssscsscsssscssssscssccsccssssscssscssscccssssssssscssscssssssssssscsssscssssscsssscsssssssscssscssscsssssssssscsssssssscscsssssscssscscsscsscssssssssssscsssssssssssssssscsscscssssscssssscssssssssssssssssscssssssscsssscssssccsssssscc" /></g></svg>
